inDegrees=no
num_controls=7
num_derivatives=13
num_iterations=104
num_multipliers=7
num_parameters=0
num_slacks=7
num_states=26
objective=0.445736
objective_accelerations=0.057145
objective_balance=0.003334
objective_effort=0.022723
objective_height=0.356996
objective_ligament=0.005539
solver_duration=1404.857729
status=Solve_Succeeded
success=true
DataType=double
version=3
OpenSimVersion=4.5
endheader
time	/jointset/ground_pelvis/pelvis_tilt/value	/jointset/ground_pelvis/pelvis_tx/value	/jointset/ground_pelvis/pelvis_ty/value	/jointset/hip_l/hip_flexion_l/value	/jointset/hip_l/hip_adduction_l/value	/jointset/hip_l/hip_rotation_l/value	/jointset/back/lumbar_extension/value	/jointset/patellofemoral_l/patellar_flexion_l/value	/jointset/knee_l/knee_flexion_l/value	/jointset/knee_l/knee_adduction_l/value	/jointset/knee_l/knee_rotation_l/value	/jointset/ankle_l/ankle_angle_l/value	/jointset/subtalar_l/subtalar_angle_l/value	/jointset/ground_pelvis/pelvis_tilt/speed	/jointset/ground_pelvis/pelvis_tx/speed	/jointset/ground_pelvis/pelvis_ty/speed	/jointset/hip_l/hip_flexion_l/speed	/jointset/hip_l/hip_adduction_l/speed	/jointset/hip_l/hip_rotation_l/speed	/jointset/back/lumbar_extension/speed	/jointset/patellofemoral_l/patellar_flexion_l/speed	/jointset/knee_l/knee_flexion_l/speed	/jointset/knee_l/knee_adduction_l/speed	/jointset/knee_l/knee_rotation_l/speed	/jointset/ankle_l/ankle_angle_l/speed	/jointset/subtalar_l/subtalar_angle_l/speed	/forceset/tau_hip_flexion_l	/forceset/tau_hip_adduction_l	/forceset/tau_hip_rotation_l	/forceset/tau_knee_flexion_l	/forceset/tau_ankle_angle_l	/forceset/tau_subtalar_angle_l	/forceset/tau_lumbar_extension	lambda_cid13_p0	lambda_cid13_p1	lambda_cid13_p2	lambda_cid13_p3	lambda_cid13_p4	lambda_cid13_p5	lambda_cid14_p0	/jointset/ground_pelvis/pelvis_tilt/accel	/jointset/ground_pelvis/pelvis_tx/accel	/jointset/ground_pelvis/pelvis_ty/accel	/jointset/hip_l/hip_flexion_l/accel	/jointset/hip_l/hip_adduction_l/accel	/jointset/hip_l/hip_rotation_l/accel	/jointset/back/lumbar_extension/accel	/jointset/patellofemoral_l/patellar_flexion_l/accel	/jointset/knee_l/knee_flexion_l/accel	/jointset/knee_l/knee_adduction_l/accel	/jointset/knee_l/knee_rotation_l/accel	/jointset/ankle_l/ankle_angle_l/accel	/jointset/subtalar_l/subtalar_angle_l/accel	gamma_cid13_p0	gamma_cid13_p1	gamma_cid13_p2	gamma_cid13_p3	gamma_cid13_p4	gamma_cid13_p5	gamma_cid14_p0
1.5	-0.3630254863735333	-0.01804249699863973	0.7635799942502395	1.092387520605509	-0.4351260900526551	-0.2110851583552025	-0.2218052793170324	0.8041237286113951	0.8041237286118265	-0.1319133093479466	-0.1439658425850714	0.1367983966290064	-0.0146435369169225	0.6669344913572616	0.267510080035973	0.5283402952809338	-2.435280340683855	0.2120208020634935	-0.7168238855117451	0.3220184725021283	-2.019744695187915	-2.019744695187715	-0.1271175945050098	0.1387320911865266	-0.4162560197377994	0.02945266225240547	-0.1711231107647737	0.03832318039587154	-0.0079176018953827	-0.2014917694783507	0.03740799286690759	0.03576711920391327	0.1652921804138475	-20.14524939795526	-14.77985585622941	5.188380873374101	-6.08759819498559	-518.6704684933817	-54.84591091059409	-24.94724859198578	0.6543648214491814	0.6518390513990466	-0.5377992050118443	-1.191446994596537	0.693498386647913	-0.1546632249375808	1.365318861914715	-1.272525579236214	-1.272525579236459	0.1085019708554338	0.2126163832807	-0.5402429443458971	0.4734972284216065	4.909560597991733e-07	5.935428143383998e-07	-2.774320003238733e-06	-7.423636401947465e-08	7.098153915460729e-07	3.670562360693886e-08	4.581573391130588e-07
1.51	-0.356323553043278	-0.01533505641067919	0.7688354762133084	1.067976884522876	-0.4329726693574083	-0.2182605406989795	-0.2185181373141865	0.7838650520970436	0.7838650520970604	-0.1331815835576115	-0.1425696947123509	0.1326091192662651	-0.01432701775095415	0.6733493520085311	0.273943445641939	0.5226458446688956	-2.446506680169299	0.2186413108646543	-0.7181470472007535	0.3353706474744395	-2.031709465841439	-2.031709465841382	-0.1265390062485766	0.1404884113692581	-0.4215238761588295	0.0338584176634458	-0.1650517706951383	0.03734126744766326	-0.007588263380842807	-0.1989361181108746	0.03795360613180229	0.03500228266297933	0.1603697698385018	-19.76843511146513	-14.52580817577763	5.161748961915936	-6.04915389525974	-514.8112705845059	-55.02640345103622	-25.86159676654849	0.6196339382703679	0.6339405099147636	-0.6017006554982687	-1.037180235658312	0.6430016630340587	-0.1049750932328458	1.314274726021004	-1.116356711901896	-1.116356711923339	0.03247581932909349	0.1554975569012679	-0.5086702780340517	0.4251145140171911	4.127076654128973e-07	1.160415712541851e-06	-1.764427950815206e-06	1.19899743986728e-07	5.886074478510764e-07	1.653015317381144e-07	4.038664901130748e-07
1.52	-0.3495605536562495	-0.01256431112771501	0.7740307271370174	1.04346419448336	-0.4307537086669125	-0.2254459211501197	-0.2150986519793915	0.7634951470954549	0.7634951470950621	-0.1344440841714407	-0.1411563120935895	0.1283694406819022	-0.01396624106756098	0.6791477027119829	0.2801710190367006	0.5162940874089051	-2.455691132060341	0.2251288011131747	-0.7188235069837792	0.3484871388920164	-2.041990392634621	-2.041990392634708	-0.1259628753404713	0.1421790403972662	-0.4263362640619601	0.03830416573736382	-0.1589804306255153	0.03635935449944377	-0.007258924866204365	-0.1963804667434108	0.03849921939669123	0.03423744612202664	0.1554473592631498	-19.39486736845824	-14.27405107582414	5.138748769018607	-6.036737104527349	-511.0146316575053	-55.25272650295422	-26.77537660570025	0.5310628318856119	0.610680609158184	-0.6692605346023113	-0.7830694757164262	0.6668946761198243	-0.0253228437410305	1.318182150967882	-0.9357568071679422	-0.9357568071679341	0.1080105011898541	0.1994781523360109	-0.4491492407659909	0.4814957609971468	3.879569684324664e-07	1.407901307258625e-06	-1.382251571908946e-06	1.975059236886517e-07	5.612133166273425e-07	2.547550395056367e-07	3.844253012970441e-07
1.53	-0.342742569102286	-0.009732560695155441	0.7791592096747854	1.018869974278148	-0.4284706744945792	-0.2326341995359842	-0.211549509490919	0.7430308389878579	0.7430308389876589	-0.1357014484452939	-0.1397258701579888	0.1240836696615175	-0.0135611024760801	0.6843477956383985	0.2861197449096922	0.5092939927854172	-2.462778679440169	0.2314503641032777	-0.7187323869737787	0.3612754925007655	-2.050567620995229	-2.050567620994947	-0.1254988778276703	0.1438927948421328	-0.4307560813620676	0.04271719573620749	-0.1532659342930442	0.03565104863351994	-0.006861555157482307	-0.1929232665205102	0.03752374910250875	0.03341146862429786	0.150687516207656	-19.51615913334362	-13.90804677171631	5.096337051715431	-5.450283892994659	-507.2048730893785	-55.37124946991348	-27.68862473072731	0.4992938335908531	0.578095503951542	-0.7315135914438655	-0.615429379728695	0.6107089620739625	0.04168015760858449	1.249282020593744	-0.773246952416567	-0.7732469523611947	0.01739543050545486	0.1544548708209118	-0.4290833737113572	0.4202631351005798	4.200475749457454e-07	1.316037892020808e-06	-1.667023096114774e-06	1.512990545672806e-07	6.33496361154324e-07	3.026197468867777e-07	4.020118764264634e-07
1.54	-0.3358756213569449	-0.006843097618349484	0.784214465333274	0.9942161121970142	-0.4261252403220209	-0.2398184965749033	-0.2078744594554064	0.7224898503762706	0.7224898503762736	-0.1369538125331739	-0.1382788645218954	0.1197555633883156	-0.01311202228145624	0.6889403409876668	0.2917135478859784	0.50164871155304	-2.467619507244503	0.2376088011581212	-0.7180272375942595	0.373668648300126	-2.057326493432214	-2.057326493431562	-0.1249628381476611	0.1454917804973571	-0.4348033146253051	0.04709248636595516	-0.1475514379605883	0.03494274276758599	-0.006464185448701139	-0.189466066297619	0.0365482788083217	0.03258549112655393	0.145927673152153	-19.63956001704739	-13.54633220198578	5.059932210075768	-4.903167533813712	-503.4412321034674	-55.53987922268928	-28.60203593369345	0.4095533164560558	0.5396960298171004	-0.7982978563801664	-0.3337255606177236	0.6342694890679332	0.09748303016274248	1.239142589090177	-0.5720856224434375	-0.5720856224434538	0.1224189346314861	0.1765243944075338	-0.3746324333919736	0.4739478871779473	4.280730294827958e-07	1.421563468213499e-06	-1.66787765473073e-06	1.675021943591169e-07	6.601286390580288e-07	3.568569554875204e-07	4.105747214685404e-07
1.55	-0.3289658325153653	-0.003899255611045342	0.7891902050106979	0.969524584573116	-0.4237191800397893	-0.2469938780849167	-0.2040775320292808	0.7018904105193662	0.7018904105194974	-0.1382000255962041	-0.1368173743488045	0.1153892474577821	-0.01261928772703697	0.692899711567428	0.2970158393337099	0.4934052946902093	-2.47033915625543	0.2435635165947997	-0.7169335865351969	0.3856562948583864	-2.062257255416857	-2.062257255416217	-0.1242951185038634	0.146801806377274	-0.438358767739689	0.05145662643283359	-0.1411861020639595	0.03327372438882853	-0.006206517044477278	-0.1878564215292297	0.03816656059586192	0.03154757340710114	0.1407705044898633	-18.96004560232443	-13.2268186750486	5.023014791929102	-5.078387674656114	-500.1055951952306	-55.71087101578956	-29.51690196141424	0.3714664780785873	0.5197044786287409	-0.8513290398467374	-0.1890526802427676	0.5700095218488157	0.1329998384720916	1.169494379217529	-0.4080196510734546	-0.4080196510752374	0.03692213217501555	0.1072955713029003	-0.3307686198794971	0.4178027385341884	4.083712436994106e-07	1.754515491054371e-06	-1.34161049212359e-06	2.556125183335578e-07	6.341632945479612e-07	4.184363937543255e-07	4.087406601056368e-07
1.56	-0.3220199824581204	-0.0009035489339882934	0.7940807174317712	0.9448162668373252	-0.4212547852130142	-0.2541547843454011	-0.2001625443995681	0.6812507734096972	0.681250773409954	-0.139439966732219	-0.1353429731396023	0.110990423622221	-0.01208288063753062	0.6961525841208852	0.3020864818365598	0.4846032602828729	-2.470977529622861	0.2492757100667201	-0.7151321876883713	0.3972806890175869	-2.065365943985452	-2.065365943984824	-0.1237084527432212	0.1480739877179559	-0.4413048956307903	0.0558269933833682	-0.1348207661673356	0.03160470601007035	-0.005948848640305682	-0.1862467767608383	0.03978484238340108	0.03050965568764721	0.1356133358275697	-18.2822050460607	-12.9097245848162	4.989582380489129	-5.282820614649837	-496.805376744992	-55.9283715273236	-30.42838675790793	0.2682537111952286	0.4933662408407974	-0.9100213652813074	0.08252956808123998	0.5857650961163453	0.2390325877153072	1.166492109278169	-0.2076709392338374	-0.2076709392338168	0.1062081580003586	0.1689554865605334	-0.2527673887354896	0.4751932639091833	3.78751025488737e-07	1.923208537312258e-06	-1.101066269695735e-06	3.129526997521611e-07	5.909967122317906e-07	4.554636008800929e-07	3.95871365517932e-07
